<svg version="1.1" id="Layer_1" xmlns="http://www.w3.org/2000/svg" xmlns:xlink="http://www.w3.org/1999/xlink" x="0px" y="0px"
	 width="100%" viewBox="0 0 500 500" enable-background="new 0 0 500 500" xml:space="preserve">
<path fill="#000000" opacity="1.000000" stroke="none" 
	d="
M316.000000,501.000000 
	C210.666687,501.000000 105.833382,501.000000 1.000056,501.000000 
	C1.000037,334.333405 1.000037,167.666794 1.000019,1.000146 
	C167.666565,1.000097 334.333130,1.000097 500.999756,1.000049 
	C500.999847,167.666519 500.999847,334.333038 500.999939,500.999786 
	C439.500000,501.000000 378.000000,501.000000 316.000000,501.000000 
M276.060486,274.960876 
	C276.031372,287.509979 275.976196,300.059143 276.018005,312.608002 
	C276.021729,313.728424 276.655060,314.846771 277.006927,316.885040 
	C277.006927,320.440277 277.006927,323.995514 277.006927,328.998108 
	C274.351166,326.555054 272.754181,325.382263 271.525085,323.903656 
	C266.366852,317.698120 259.671600,313.293976 252.061722,311.882355 
	C235.274506,308.768402 222.722122,313.462524 212.985550,328.124512 
	C199.782349,348.006805 198.883194,369.172974 211.478333,389.502106 
	C224.767563,410.951508 250.633362,416.213837 270.191803,397.089996 
	C280.781128,386.736023 285.024658,373.610992 285.010620,358.907410 
	C284.954865,300.427521 284.954071,241.947449 285.059021,183.467682 
	C285.065399,179.909653 283.265442,177.920364 280.528198,177.232513 
	C267.520660,173.963837 254.444260,170.963303 241.365189,167.986725 
	C225.086487,164.281952 208.752838,160.815765 192.493591,157.028915 
	C164.507202,150.510803 136.565125,143.802597 108.591179,137.230652 
	C104.057747,136.165604 102.022476,138.055939 102.020081,143.109482 
	C102.004898,175.099213 102.011002,207.088928 102.010353,239.078659 
	C102.010025,254.877213 102.010284,270.675781 102.010284,287.757965 
	C99.591019,284.729156 98.101799,282.416412 96.187103,280.537079 
	C77.338943,262.037201 49.716202,265.075958 36.169426,288.521454 
	C28.429852,301.916382 26.573845,316.023499 30.524750,331.577515 
	C33.079456,341.634918 37.583351,349.545563 44.794010,356.356964 
	C53.593285,364.669037 64.227951,367.570618 75.953133,365.457397 
	C95.227509,361.983582 109.034416,341.681976 109.852631,323.771210 
	C110.944923,299.860596 110.654182,275.886780 111.012535,251.011719 
	C111.003204,234.341980 110.993874,217.672241 111.832809,201.015594 
	C113.305389,201.218262 114.806816,201.299515 116.246277,201.641541 
	C144.306564,208.309433 172.364777,214.986282 200.412552,221.706573 
	C223.019638,227.123276 245.601135,232.647217 268.217102,238.026398 
	C277.015320,240.119049 277.044189,239.997681 276.188080,249.411942 
	C276.215485,257.624603 276.242889,265.837250 276.060486,274.960876 
M469.005646,178.236435 
	C468.624878,176.846115 468.244110,175.455811 467.734619,173.339218 
	C461.894989,156.593811 452.782196,141.921066 439.509918,130.092361 
	C433.130615,124.406876 426.341187,119.149895 419.480988,114.043488 
	C410.468292,107.334862 401.270752,100.866920 392.008636,94.505226 
	C388.786804,92.292305 386.257141,93.710571 386.049713,97.517029 
	C385.914154,100.004341 386.099487,102.509148 386.052979,105.939003 
	C386.052979,150.127747 386.052979,194.316498 386.052979,239.051758 
	C382.181671,235.364471 379.002838,232.116028 375.592987,229.131485 
	C366.358826,221.049057 355.267426,220.216171 344.093872,222.599243 
	C333.648499,224.827042 326.274872,232.388367 321.579102,241.398361 
	C311.203430,261.306702 311.133575,281.334564 324.288025,300.336517 
	C326.618591,303.703125 328.933350,307.818726 334.663330,308.164246 
	C336.767883,309.810333 338.872406,311.456451 341.420990,313.702209 
	C347.696838,316.419952 354.302887,316.900421 360.836243,315.493469 
	C378.490936,311.691559 393.120605,293.115692 394.045349,273.029236 
	C394.006195,235.038971 393.967010,197.048706 394.361298,158.702927 
	C397.204590,160.623596 400.107025,162.462860 402.881409,164.478378 
	C418.620819,175.912582 434.329620,187.388962 450.589447,199.273880 
	C452.024902,200.277145 453.460327,201.280426 455.228638,202.851913 
	C458.752808,205.539276 462.117798,208.476212 465.841461,210.850769 
	C470.481262,213.809616 474.493500,211.711487 473.838196,206.313599 
	C472.725525,197.147583 470.682861,188.094482 469.005646,178.236435 
z"/>
<path fill="#4F4F4F" opacity="1.000000" stroke="none" 
	d="
M276.992340,249.076172 
	C277.044189,239.997681 277.015320,240.119049 268.217102,238.026398 
	C245.601135,232.647217 223.019638,227.123276 200.412552,221.706573 
	C172.364777,214.986282 144.306564,208.309433 116.246277,201.641541 
	C114.806816,201.299515 113.305389,201.218262 111.013084,201.196671 
	C110.130669,217.587341 110.056976,233.796921 110.045853,250.006546 
	C110.045410,250.650864 110.640053,251.295578 110.957436,251.940109 
	C110.654182,275.886780 110.944923,299.860596 109.852631,323.771210 
	C109.034416,341.681976 95.227509,361.983582 75.953133,365.457397 
	C64.227951,367.570618 53.593285,364.669037 44.794010,356.356964 
	C37.583351,349.545563 33.079456,341.634918 30.524750,331.577515 
	C26.573845,316.023499 28.429852,301.916382 36.169426,288.521454 
	C49.716202,265.075958 77.338943,262.037201 96.187103,280.537079 
	C98.101799,282.416412 99.591019,284.729156 102.010284,287.757965 
	C102.010284,270.675781 102.010025,254.877213 102.010353,239.078659 
	C102.011002,207.088928 102.004898,175.099213 102.020081,143.109482 
	C102.022476,138.055939 104.057747,136.165604 108.591179,137.230652 
	C136.565125,143.802597 164.507202,150.510803 192.493591,157.028915 
	C208.752838,160.815765 225.086487,164.281952 241.365189,167.986725 
	C254.444260,170.963303 267.520660,173.963837 280.528198,177.232513 
	C283.265442,177.920364 285.065399,179.909653 285.059021,183.467682 
	C284.954071,241.947449 284.954865,300.427521 285.010620,358.907410 
	C285.024658,373.610992 280.781128,386.736023 270.191803,397.089996 
	C250.633362,416.213837 224.767563,410.951508 211.478333,389.502106 
	C198.883194,369.172974 199.782349,348.006805 212.985550,328.124512 
	C222.722122,313.462524 235.274506,308.768402 252.061722,311.882355 
	C259.671600,313.293976 266.366852,317.698120 271.525085,323.903656 
	C272.754181,325.382263 274.351166,326.555054 277.006927,328.998108 
	C277.006927,323.995514 277.006927,320.440277 277.017273,315.959259 
	C276.903717,301.377777 276.779816,287.722046 276.774780,273.606750 
	C276.926544,265.123474 276.959442,257.099823 276.992340,249.076172 
M181.504059,208.994385 
	C192.026672,211.464920 202.568207,213.858032 213.067551,216.423798 
	C229.635590,220.472565 246.160934,224.696548 262.736481,228.713654 
	C267.215820,229.799240 271.811035,230.406708 276.978333,231.347458 
	C276.978333,215.925400 277.074554,201.797562 276.809052,187.676529 
	C276.786011,186.449219 274.565521,184.614578 273.046082,184.180222 
	C267.495819,182.593582 261.806610,181.495895 256.176117,180.186661 
	C240.132660,176.456161 224.079193,172.767288 208.059372,168.937805 
	C203.636261,167.880493 199.374283,166.130310 194.938766,165.147537 
	C184.321442,162.795059 173.618027,160.831543 162.999023,158.486191 
	C149.490707,155.502686 136.029648,152.304886 122.552139,149.182556 
	C118.842072,148.323029 115.145988,147.403107 111.011040,146.406693 
	C111.011040,161.198334 110.916023,175.008087 111.157837,188.811935 
	C111.182053,190.194138 113.027824,191.881104 114.436302,192.803329 
	C115.724861,193.647003 117.569786,193.632462 119.163956,194.019135 
	C139.664520,198.991821 160.164078,203.968674 181.504059,208.994385 
M241.777679,318.993927 
	C235.759674,320.178070 230.128510,322.013672 225.313446,326.193604 
	C209.239334,340.147491 206.683868,369.094635 219.674210,387.266205 
	C235.098602,408.842590 260.233154,402.586975 271.011505,382.279907 
	C278.288635,368.569397 279.016479,354.487457 272.785736,340.226166 
	C267.875458,328.987274 257.438049,318.777740 241.777679,318.993927 
M44.159489,344.221558 
	C47.299828,347.407410 50.015663,351.224976 53.653927,353.669891 
	C69.499207,364.318085 87.413765,355.700714 94.793068,342.809418 
	C105.648087,323.846191 105.113434,305.172363 91.237846,287.590698 
	C82.112709,276.028290 66.897575,273.802887 55.583778,280.322906 
	C41.142918,288.645020 32.546314,311.180115 37.416641,327.194550 
	C39.115761,332.781525 41.758816,338.081390 44.159489,344.221558 
z"/>
<path fill="#4F4F4F" opacity="1.000000" stroke="none" 
	d="
M334.087219,307.814270 
	C328.933350,307.818726 326.618591,303.703125 324.288025,300.336517 
	C311.133575,281.334564 311.203430,261.306702 321.579102,241.398361 
	C326.274872,232.388367 333.648499,224.827042 344.093872,222.599243 
	C355.267426,220.216171 366.358826,221.049057 375.592987,229.131485 
	C379.002838,232.116028 382.181671,235.364471 386.052979,239.051758 
	C386.052979,194.316498 386.052979,150.127747 386.402832,105.630363 
	C387.525452,107.389481 388.222412,109.492020 389.140839,111.492912 
	C389.306000,111.852760 390.383667,111.793755 391.235107,111.923218 
	C391.430176,111.918297 391.821564,111.914131 392.094788,111.934845 
	C392.550140,111.968918 392.732330,111.982269 392.934814,112.464157 
	C392.974518,120.368713 392.897644,127.806732 393.052490,135.239914 
	C393.133850,139.146225 393.620605,143.044098 394.092407,147.244553 
	C395.631378,148.711334 396.943054,149.958466 398.382507,151.034714 
	C409.176300,159.104996 419.957001,167.193695 430.819092,175.171402 
	C438.839966,181.062347 446.977234,186.794800 455.229553,192.889801 
	C455.662720,193.547333 455.928986,193.912949 456.374329,194.280945 
	C456.553375,194.283310 456.814728,194.528137 456.421753,194.623199 
	C454.035431,196.095825 452.042114,197.473389 450.048828,198.850983 
	C434.329620,187.388962 418.620819,175.912582 402.881409,164.478378 
	C400.107025,162.462860 397.204590,160.623596 393.921692,159.223083 
	C393.325256,161.885391 393.034576,164.027390 393.032013,166.169754 
	C393.000305,192.599899 393.015167,219.030106 393.004761,245.460297 
	C393.003357,248.974136 392.928894,252.487946 392.536438,256.035522 
	C389.994934,257.754639 387.805267,259.440033 385.343750,260.863464 
	C383.807800,249.811020 378.080231,241.513367 370.047150,234.752609 
	C364.941345,230.455490 358.317688,228.467560 352.035980,229.362991 
	C334.353424,231.883575 319.894684,252.098511 322.075409,270.240234 
	C323.512390,282.194366 326.756195,293.422577 335.808197,302.129578 
	C335.040771,304.169800 334.563995,305.992035 334.087219,307.814270 
z"/>
<path fill="#505050" opacity="1.000000" stroke="none" 
	d="
M391.040039,111.928139 
	C390.383667,111.793755 389.306000,111.852760 389.140839,111.492912 
	C388.222412,109.492020 387.525452,107.389481 386.446899,105.163925 
	C386.099487,102.509148 385.914154,100.004341 386.049713,97.517029 
	C386.257141,93.710571 388.786804,92.292305 392.008636,94.505226 
	C401.270752,100.866920 410.468292,107.334862 419.480988,114.043488 
	C426.341187,119.149895 433.130615,124.406876 439.509918,130.092361 
	C452.782196,141.921066 461.894989,156.593811 467.432800,173.681931 
	C464.790466,175.034668 462.449982,176.044708 460.051880,176.670105 
	C459.201752,173.977676 458.608551,171.577103 457.584564,169.377045 
	C450.692108,154.569016 441.767548,141.154175 428.797699,131.010254 
	C417.788910,122.400154 406.268677,114.444008 394.855225,106.095901 
	C394.441895,105.861519 394.212891,105.977097 394.059509,106.519775 
	C394.070343,106.699509 393.945740,107.037384 393.701050,107.247238 
	C392.965179,108.640427 392.473999,109.823761 391.993713,110.997932 
	C392.004608,110.988770 392.022095,110.966957 391.846588,111.115715 
	C391.448517,111.474098 391.238190,111.695320 391.040039,111.928139 
z"/>
<path fill="#4F4F4F" opacity="1.000000" stroke="none" 
	d="
M385.615570,261.125427 
	C387.805267,259.440033 389.994934,257.754639 392.567963,256.502319 
	C393.278778,262.608551 393.606293,268.281708 393.933807,273.954834 
	C393.120605,293.115692 378.490936,311.691559 360.836243,315.493469 
	C354.302887,316.900421 347.696838,316.419952 341.303619,313.096008 
	C342.775879,310.606842 337.682739,306.687195 343.486755,306.166565 
	C355.268036,311.005676 365.147339,307.678650 373.566376,299.671112 
	C384.605194,289.171783 387.143951,275.710693 385.615570,261.125427 
z"/>
<path fill="#4F4F4F" opacity="1.000000" stroke="none" 
	d="
M469.031006,178.993958 
	C470.682861,188.094482 472.725525,197.147583 473.838196,206.313599 
	C474.493500,211.711487 470.481262,213.809616 465.841461,210.850769 
	C462.117798,208.476212 458.752808,205.539276 455.160217,202.220245 
	C456.391388,199.782806 457.690979,197.977036 459.307495,196.250092 
	C461.158936,197.385483 462.693420,198.442032 464.227905,199.498581 
	C464.613922,199.258896 464.999969,199.019211 465.385986,198.779526 
	C464.254303,192.878052 463.122650,186.976562 462.057739,180.745148 
	C463.060089,179.145477 463.995728,177.875732 465.751770,175.492645 
	C465.751770,178.194107 465.751770,179.247635 465.751770,180.699829 
	C467.056244,180.021225 468.043640,179.507584 469.031006,178.993958 
z"/>
<path fill="#727272" opacity="1.000000" stroke="none" 
	d="
M393.989563,273.492035 
	C393.606293,268.281708 393.278778,262.608551 392.919769,256.468597 
	C392.928894,252.487946 393.003357,248.974136 393.004761,245.460297 
	C393.015167,219.030106 393.000305,192.599899 393.032013,166.169754 
	C393.034576,164.027390 393.325256,161.885391 393.704956,159.400833 
	C393.967010,197.048706 394.006195,235.038971 393.989563,273.492035 
z"/>
<path fill="#787878" opacity="1.000000" stroke="none" 
	d="
M343.166840,305.991150 
	C337.682739,306.687195 342.775879,310.606842 341.081604,312.796173 
	C338.872406,311.456451 336.767883,309.810333 334.375275,307.989258 
	C334.563995,305.992035 335.040771,304.169800 336.178192,302.162598 
	C338.948181,303.315491 341.057495,304.653320 343.166840,305.991150 
z"/>
<path fill="#ECECEC" opacity="1.000000" stroke="none" 
	d="
M110.984985,251.475922 
	C110.640053,251.295578 110.045410,250.650864 110.045853,250.006546 
	C110.056976,233.796921 110.130669,217.587341 110.588951,201.190125 
	C110.993874,217.672241 111.003204,234.341980 110.984985,251.475922 
z"/>
<path fill="#F1F1F1" opacity="1.000000" stroke="none" 
	d="
M276.655914,274.066345 
	C276.779816,287.722046 276.903717,301.377777 277.011810,315.499756 
	C276.655060,314.846771 276.021729,313.728424 276.018005,312.608002 
	C275.976196,300.059143 276.031372,287.509979 276.259674,274.559265 
	C276.458862,274.157654 276.655914,274.066345 276.655914,274.066345 
z"/>
<path fill="#525252" opacity="1.000000" stroke="none" 
	d="
M458.990570,196.171265 
	C457.690979,197.977036 456.391388,199.782806 454.993774,201.936127 
	C453.460327,201.280426 452.024902,200.277145 450.319153,199.062424 
	C452.042114,197.473389 454.035431,196.095825 456.630493,194.798401 
	C457.818359,195.309464 458.404480,195.740356 458.990570,196.171265 
z"/>
<path fill="#787878" opacity="1.000000" stroke="none" 
	d="
M469.018311,178.615204 
	C468.043640,179.507584 467.056244,180.021225 465.751770,180.699829 
	C465.751770,179.247635 465.751770,178.194107 465.751770,175.492645 
	C463.995728,177.875732 463.060089,179.145477 461.745361,180.615021 
	C460.947357,179.561493 460.528442,178.308121 460.109497,177.054749 
	C462.449982,176.044708 464.790466,175.034668 467.497131,174.045074 
	C468.244110,175.455811 468.624878,176.846115 469.018311,178.615204 
z"/>
<path fill="#D6D6D6" opacity="1.000000" stroke="none" 
	d="
M276.774780,273.606750 
	C276.655914,274.066345 276.458862,274.157654 276.364563,274.103760 
	C276.242889,265.837250 276.215485,257.624603 276.590210,249.244049 
	C276.959442,257.099823 276.926544,265.123474 276.774780,273.606750 
z"/>
<path fill="#000000" opacity="1.000000" stroke="none" 
	d="
M181.083984,208.969421 
	C160.164078,203.968674 139.664520,198.991821 119.163956,194.019135 
	C117.569786,193.632462 115.724861,193.647003 114.436302,192.803329 
	C113.027824,191.881104 111.182053,190.194138 111.157837,188.811935 
	C110.916023,175.008087 111.011040,161.198334 111.011040,146.406693 
	C115.145988,147.403107 118.842072,148.323029 122.552139,149.182556 
	C136.029648,152.304886 149.490707,155.502686 162.999023,158.486191 
	C173.618027,160.831543 184.321442,162.795059 194.938766,165.147537 
	C199.374283,166.130310 203.636261,167.880493 208.059372,168.937805 
	C224.079193,172.767288 240.132660,176.456161 256.176117,180.186661 
	C261.806610,181.495895 267.495819,182.593582 273.046082,184.180222 
	C274.565521,184.614578 276.786011,186.449219 276.809052,187.676529 
	C277.074554,201.797562 276.978333,215.925400 276.978333,231.347458 
	C271.811035,230.406708 267.215820,229.799240 262.736481,228.713654 
	C246.160934,224.696548 229.635590,220.472565 213.067551,216.423798 
	C202.568207,213.858032 192.026672,211.464920 181.083984,208.969421 
z"/>
<path fill="#000000" opacity="1.000000" stroke="none" 
	d="
M242.221344,318.990936 
	C257.438049,318.777740 267.875458,328.987274 272.785736,340.226166 
	C279.016479,354.487457 278.288635,368.569397 271.011505,382.279907 
	C260.233154,402.586975 235.098602,408.842590 219.674210,387.266205 
	C206.683868,369.094635 209.239334,340.147491 225.313446,326.193604 
	C230.128510,322.013672 235.759674,320.178070 242.221344,318.990936 
z"/>
<path fill="#000000" opacity="1.000000" stroke="none" 
	d="
M44.065140,343.866974 
	C41.758816,338.081390 39.115761,332.781525 37.416641,327.194550 
	C32.546314,311.180115 41.142918,288.645020 55.583778,280.322906 
	C66.897575,273.802887 82.112709,276.028290 91.237846,287.590698 
	C105.113434,305.172363 105.648087,323.846191 94.793068,342.809418 
	C87.413765,355.700714 69.499207,364.318085 53.653927,353.669891 
	C50.015663,351.224976 47.299828,347.407410 44.065140,343.866974 
z"/>
<path fill="#000000" opacity="1.000000" stroke="none" 
	d="
M343.486755,306.166565 
	C341.057495,304.653320 338.948181,303.315491 336.468842,301.944611 
	C326.756195,293.422577 323.512390,282.194366 322.075409,270.240234 
	C319.894684,252.098511 334.353424,231.883575 352.035980,229.362991 
	C358.317688,228.467560 364.941345,230.455490 370.047150,234.752609 
	C378.080231,241.513367 383.807800,249.811020 385.343750,260.863464 
	C387.143951,275.710693 384.605194,289.171783 373.566376,299.671112 
	C365.147339,307.678650 355.268036,311.005676 343.486755,306.166565 
z"/>
<path fill="#000000" opacity="1.000000" stroke="none" 
	d="
M460.051880,176.670120 
	C460.528442,178.308121 460.947357,179.561493 461.678650,180.944962 
	C463.122650,186.976562 464.254303,192.878052 465.385986,198.779526 
	C464.999969,199.019211 464.613922,199.258896 464.227905,199.498581 
	C462.693420,198.442032 461.158936,197.385483 459.307495,196.250092 
	C458.404480,195.740356 457.818359,195.309464 457.023499,194.703339 
	C456.814728,194.528137 456.553375,194.283310 456.270691,193.943985 
	C455.679535,193.269073 455.371094,192.933472 455.062653,192.597870 
	C446.977234,186.794800 438.839966,181.062347 430.819092,175.171402 
	C419.957001,167.193695 409.176300,159.104996 398.382507,151.034714 
	C396.943054,149.958466 395.631378,148.711334 394.124939,146.780548 
	C393.974792,133.024307 393.960266,120.030846 393.945740,107.037384 
	C393.945740,107.037384 394.070343,106.699509 394.284454,106.441368 
	C394.498566,106.183228 394.974731,106.198502 394.974731,106.198502 
	C406.268677,114.444008 417.788910,122.400154 428.797699,131.010254 
	C441.767548,141.154175 450.692108,154.569016 457.584564,169.377045 
	C458.608551,171.577103 459.201752,173.977676 460.051880,176.670120 
z"/>
<path fill="#727272" opacity="1.000000" stroke="none" 
	d="
M393.701050,107.247238 
	C393.960266,120.030846 393.974792,133.024307 393.956787,146.481781 
	C393.620605,143.044098 393.133850,139.146225 393.052490,135.239914 
	C392.897644,127.806732 392.974518,120.368713 392.821808,112.263504 
	C392.498383,111.344322 392.263184,111.148590 391.982849,111.007095 
	C392.473999,109.823761 392.965179,108.640427 393.701050,107.247238 
z"/>
<path fill="#525252" opacity="1.000000" stroke="none" 
	d="
M455.229553,192.889786 
	C455.371094,192.933472 455.679535,193.269073 456.091614,193.941620 
	C455.928986,193.912949 455.662720,193.547333 455.229553,192.889786 
z"/>
<path fill="#505050" opacity="1.000000" stroke="none" 
	d="
M391.993713,110.997932 
	C392.263184,111.148590 392.498383,111.344322 392.801453,111.794968 
	C392.732330,111.982269 392.550140,111.968918 392.144562,111.698227 
	C391.921143,111.440880 392.022095,110.966957 392.022095,110.966957 
	C392.022095,110.966957 392.004608,110.988770 391.993713,110.997932 
z"/>
<path fill="#727272" opacity="1.000000" stroke="none" 
	d="
M391.846588,111.115715 
	C392.022095,110.966957 391.921143,111.440880 391.871338,111.677505 
	C391.821564,111.914131 391.430176,111.918297 391.235107,111.923218 
	C391.238190,111.695320 391.448517,111.474098 391.846588,111.115715 
z"/>
<path fill="#727272" opacity="1.000000" stroke="none" 
	d="
M394.855225,106.095901 
	C394.974731,106.198502 394.498566,106.183228 394.273621,106.261635 
	C394.212891,105.977097 394.441895,105.861519 394.855225,106.095901 
z"/>
</svg>